<svg width="24" height="24" viewBox="0 0 24 24" fill="none" xmlns="http://www.w3.org/2000/svg">
<path d="M24 12C24 18.6274 18.6274 24 12 24C5.37256 24 0 18.6274 0 12C0 5.37256 5.37256 0 12 0C18.6274 0 24 5.37256 24 12ZM10.612 18.3539L19.5152 9.45068C19.8175 9.14835 19.8175 8.65814 19.5152 8.35582L18.4203 7.26097C18.118 6.9586 17.6278 6.9586 17.3254 7.26097L10.0645 14.5218L6.67456 11.1319C6.37224 10.8296 5.88203 10.8296 5.57966 11.1319L4.48481 12.2267C4.18248 12.5291 4.18248 13.0193 4.48481 13.3216L9.51706 18.3539C9.81944 18.6562 10.3096 18.6562 10.612 18.3539Z" fill="white"/>
</svg>
